<svg style="position: absolute; width: 0; height: 0;" width="0" height="0" version="1.1" xmlns="http://www.w3.org/2000/svg" xmlns:xlink="http://www.w3.org/1999/xlink">

<symbol class="aicon aicon-tabler aicon-tabler-x" viewBox="0 0 24 24" stroke-width="2" stroke="#fff" fill="none" stroke-linecap="round" stroke-linejoin="round" id="svg-iconClose" xmlns="http://www.w3.org/2000/svg">
<path d="M0 0h24v24H0z" stroke="none"/>
<path d="M18 6 6 18M6 6l12 12"/>
</symbol>

<symbol class="aicon aicon-tabler aicon-tabler-player-play" viewBox="0 0 24 24" stroke-width="2" stroke="#fff" fill="none" stroke-linecap="round" stroke-linejoin="round" id="svg-iconPlay" xmlns="http://www.w3.org/2000/svg">
<path d="M0 0h24v24H0z" stroke="none"/>
<path d="M7 4v16l13-8z"/>
</symbol>

<symbol class="aicon aicon-tabler aicon-tabler-category-2" viewBox="0 0 24 24" stroke-width="2" stroke="#fff" fill="none" stroke-linecap="round" stroke-linejoin="round" id="svg-iconMenu" xmlns="http://www.w3.org/2000/svg">
<path d="M0 0h24v24H0z" stroke="none"/>
<path d="M14 4h6v6h-6zM4 14h6v6H4zM14 17a3 3 0 1 0 6 0 3 3 0 1 0-6 0M4 7a3 3 0 1 0 6 0 3 3 0 1 0-6 0"/>
</symbol>

<symbol class="aicon aicon-tabler aicon-tabler-player-pause" viewBox="0 0 24 24" stroke-width="2" stroke="#fff" fill="none" stroke-linecap="round" stroke-linejoin="round" id="svg-iconPause" xmlns="http://www.w3.org/2000/svg">
<path d="M0 0h24v24H0z" stroke="none"/>
<path d="M6 6a1 1 0 0 1 1-1h2a1 1 0 0 1 1 1v12a1 1 0 0 1-1 1H7a1 1 0 0 1-1-1zM14 6a1 1 0 0 1 1-1h2a1 1 0 0 1 1 1v12a1 1 0 0 1-1 1h-2a1 1 0 0 1-1-1z"/>
</symbol>

<symbol class="aicon aicon-tabler aicon-tabler-volume-off" viewBox="0 0 24 24" stroke-width="2" stroke="#fff" fill="none" stroke-linecap="round" stroke-linejoin="round" id="svg-iconSoundOff" xmlns="http://www.w3.org/2000/svg">
<path d="M0 0h24v24H0z" stroke="none"/>
<path d="M15 8a5 5 0 0 1 1.912 4.934m-1.377 2.602A5 5 0 0 1 15 16M17.7 5a9 9 0 0 1 2.362 11.086m-1.676 2.299A9 9 0 0 1 17.7 19M9.069 5.054 9.5 4.5A.8.8 0 0 1 11 5v2m0 4v8a.8.8 0 0 1-1.5.5L6 15H4a1 1 0 0 1-1-1v-4a1 1 0 0 1 1-1h2l1.294-1.664M3 3l18 18"/>
</symbol>

<symbol class="aicon aicon-tabler aicon-tabler-volume" viewBox="0 0 24 24" stroke-width="2" stroke="#fff" fill="none" stroke-linecap="round" stroke-linejoin="round" id="svg-iconSoundOn" xmlns="http://www.w3.org/2000/svg">
<path d="M0 0h24v24H0z" stroke="none"/>
<path d="M15 8a5 5 0 0 1 0 8M17.7 5a9 9 0 0 1 0 14M6 15H4a1 1 0 0 1-1-1v-4a1 1 0 0 1 1-1h2l3.5-4.5A.8.8 0 0 1 11 5v14a.8.8 0 0 1-1.5.5L6 15"/>
</symbol>

</svg>