<svg style="position: absolute; width: 0; height: 0;" width="0" height="0" version="1.1" xmlns="http://www.w3.org/2000/svg" xmlns:xlink="http://www.w3.org/1999/xlink">
<symbol class="aicon aicon-tabler aicon-tabler-bow" viewBox="0 0 24 24" stroke-width="2" stroke="#fff" fill="none" stroke-linecap="round" stroke-linejoin="round" id="svg-iconRange" xmlns="http://www.w3.org/2000/svg">
<path d="M0 0h24v24H0z" stroke="none"/>
<path d="M17 3h4v4M21 3 6 18M3 18h3v3M16.5 20c1.576-1.576 2.5-4.095 2.5-6.5C19 8.69 15.31 5 10.5 5 8.085 5 5.578 5.913 4 7.5L16.5 20z"/>
</symbol>

<symbol class="aicon aicon-tabler aicon-tabler-sword" viewBox="0 0 24 24" stroke-width="2" stroke="#fff" fill="none" stroke-linecap="round" stroke-linejoin="round" id="svg-iconMelee" xmlns="http://www.w3.org/2000/svg">
<path d="M0 0h24v24H0z" stroke="none"/>
<path d="M20 4v5l-9 7-4 4-3-3 4-4 7-9zM6.5 11.5l6 6"/>
</symbol>

<symbol class="aicon aicon-tabler aicon-tabler-arrow-big-left" viewBox="0 0 24 24" stroke-width="2" stroke="#fff" fill="none" stroke-linecap="round" stroke-linejoin="round" id="svg-iconMoveLeft" xmlns="http://www.w3.org/2000/svg">
<path d="M0 0h24v24H0z" stroke="none"/>
<path d="M20 15h-8v3.586a1 1 0 0 1-1.707.707l-6.586-6.586a1 1 0 0 1 0-1.414l6.586-6.586A1 1 0 0 1 12 5.414V9h8a1 1 0 0 1 1 1v4a1 1 0 0 1-1 1z"/>
</symbol>

<symbol class="aicon aicon-tabler aicon-tabler-arrow-big-down" viewBox="0 0 24 24" stroke-width="2" stroke="#fff" fill="none" stroke-linecap="round" stroke-linejoin="round" id="svg-iconMoveDown" xmlns="http://www.w3.org/2000/svg">
<path d="M0 0h24v24H0z" stroke="none"/>
<path d="M15 4v8h3.586a1 1 0 0 1 .707 1.707l-6.586 6.586a1 1 0 0 1-1.414 0l-6.586-6.586A1 1 0 0 1 5.414 12H9V4a1 1 0 0 1 1-1h4a1 1 0 0 1 1 1z"/>
</symbol>

<symbol class="aicon aicon-tabler aicon-tabler-arrow-big-right" viewBox="0 0 24 24" stroke-width="2" stroke="#fff" fill="none" stroke-linecap="round" stroke-linejoin="round" id="svg-iconMoveRight" xmlns="http://www.w3.org/2000/svg">
<path d="M0 0h24v24H0z" stroke="none"/>
<path d="M4 9h8V5.414a1 1 0 0 1 1.707-.707l6.586 6.586a1 1 0 0 1 0 1.414l-6.586 6.586A1 1 0 0 1 12 18.586V15H4a1 1 0 0 1-1-1v-4a1 1 0 0 1 1-1z"/>
</symbol>

<symbol class="aicon aicon-tabler aicon-tabler-arrow-big-up" viewBox="0 0 24 24" stroke-width="2" stroke="#fff" fill="none" stroke-linecap="round" stroke-linejoin="round" id="svg-iconMoveUp" xmlns="http://www.w3.org/2000/svg">
<path d="M0 0h24v24H0z" stroke="none"/>
<path d="M9 20v-8H5.414a1 1 0 0 1-.707-1.707l6.586-6.586a1 1 0 0 1 1.414 0l6.586 6.586A1 1 0 0 1 18.586 12H15v8a1 1 0 0 1-1 1h-4a1 1 0 0 1-1-1z"/>
</symbol>

<symbol class="aicon aicon-tabler aicon-tabler-arrows-minimize" viewBox="0 0 24 24" stroke-width="2" stroke="#fff" fill="none" stroke-linecap="round" stroke-linejoin="round" id="svg-iconCloseFullscreen" xmlns="http://www.w3.org/2000/svg">
<path d="M0 0h24v24H0z" stroke="none"/>
<path d="M5 9h4V5M3 3l6 6M5 15h4v4M3 21l6-6M19 9h-4V5M15 9l6-6M19 15h-4v4M15 15l6 6"/>
</symbol>

<symbol class="aicon aicon-tabler aicon-tabler-arrows-maximize" viewBox="0 0 24 24" stroke-width="2" stroke="#fff" fill="none" stroke-linecap="round" stroke-linejoin="round" id="svg-iconFullscreen" xmlns="http://www.w3.org/2000/svg">
<path d="M0 0h24v24H0z" stroke="none"/>
<path d="M16 4h4v4M14 10l6-6M8 20H4v-4M4 20l6-6M16 20h4v-4M14 14l6 6M8 4H4v4M4 4l6 6"/>
</symbol>

<symbol class="aicon aicon-tabler aicon-tabler-x" viewBox="0 0 24 24" stroke-width="2" stroke="#fff" fill="none" stroke-linecap="round" stroke-linejoin="round" id="svg-iconClose" xmlns="http://www.w3.org/2000/svg">
<path d="M0 0h24v24H0z" stroke="none"/>
<path d="M18 6 6 18M6 6l12 12"/>
</symbol>

<symbol class="aicon aicon-tabler aicon-tabler-player-play" viewBox="0 0 24 24" stroke-width="2" stroke="#fff" fill="none" stroke-linecap="round" stroke-linejoin="round" id="svg-iconPlay" xmlns="http://www.w3.org/2000/svg">
<path d="M0 0h24v24H0z" stroke="none"/>
<path d="M7 4v16l13-8z"/>
</symbol>

<symbol class="aicon aicon-tabler aicon-tabler-category-2" viewBox="0 0 24 24" stroke-width="2" stroke="#fff" fill="none" stroke-linecap="round" stroke-linejoin="round" id="svg-iconMenu" xmlns="http://www.w3.org/2000/svg">
<path d="M0 0h24v24H0z" stroke="none"/>
<path d="M14 4h6v6h-6zM4 14h6v6H4zM14 17a3 3 0 1 0 6 0 3 3 0 1 0-6 0M4 7a3 3 0 1 0 6 0 3 3 0 1 0-6 0"/>
</symbol>

<symbol class="aicon aicon-tabler aicon-tabler-player-pause" viewBox="0 0 24 24" stroke-width="2" stroke="#fff" fill="none" stroke-linecap="round" stroke-linejoin="round" id="svg-iconPause" xmlns="http://www.w3.org/2000/svg">
<path d="M0 0h24v24H0z" stroke="none"/>
<path d="M6 6a1 1 0 0 1 1-1h2a1 1 0 0 1 1 1v12a1 1 0 0 1-1 1H7a1 1 0 0 1-1-1zM14 6a1 1 0 0 1 1-1h2a1 1 0 0 1 1 1v12a1 1 0 0 1-1 1h-2a1 1 0 0 1-1-1z"/>
</symbol>

<symbol class="aicon aicon-tabler aicon-tabler-volume-off" viewBox="0 0 24 24" stroke-width="2" stroke="#fff" fill="none" stroke-linecap="round" stroke-linejoin="round" id="svg-iconSoundOff" xmlns="http://www.w3.org/2000/svg">
<path d="M0 0h24v24H0z" stroke="none"/>
<path d="M15 8a5 5 0 0 1 1.912 4.934m-1.377 2.602A5 5 0 0 1 15 16M17.7 5a9 9 0 0 1 2.362 11.086m-1.676 2.299A9 9 0 0 1 17.7 19M9.069 5.054 9.5 4.5A.8.8 0 0 1 11 5v2m0 4v8a.8.8 0 0 1-1.5.5L6 15H4a1 1 0 0 1-1-1v-4a1 1 0 0 1 1-1h2l1.294-1.664M3 3l18 18"/>
</symbol>

<symbol class="aicon aicon-tabler aicon-tabler-volume" viewBox="0 0 24 24" stroke-width="2" stroke="#fff" fill="none" stroke-linecap="round" stroke-linejoin="round" id="svg-iconSoundOn" xmlns="http://www.w3.org/2000/svg">
<path d="M0 0h24v24H0z" stroke="none"/>
<path d="M15 8a5 5 0 0 1 0 8M17.7 5a9 9 0 0 1 0 14M6 15H4a1 1 0 0 1-1-1v-4a1 1 0 0 1 1-1h2l3.5-4.5A.8.8 0 0 1 11 5v14a.8.8 0 0 1-1.5.5L6 15"/>
</symbol>
</svg>